<?xml version="1.0" encoding="utf-8"?>
<!-- Generator: Adobe Illustrator 18.1.1, SVG Export Plug-In . SVG Version: 6.00 Build 0)  -->
<!DOCTYPE svg PUBLIC "-//W3C//DTD SVG 1.1//EN" "http://www.w3.org/Graphics/SVG/1.1/DTD/svg11.dtd">
<svg version="1.1" xmlns="http://www.w3.org/2000/svg" xmlns:xlink="http://www.w3.org/1999/xlink" x="0px" y="0px"
	 viewBox="0 0 600 600" enable-background="new 0 0 600 600" xml:space="preserve">
<g id="Layer_1">
	<g>
		<path fill="#D1D3D4" d="M587,300c0,158.5-128.5,287-287,287C141.5,587,13,458.5,13,300C13,141.5,141.5,13,300,13
			C458.5,13,587,141.5,587,300z"/>
		<path fill="#FFFFFF" d="M68.5,223.9c0,0-121,138.2,181.4,167.3C249.9,391.2,199.4,129.3,68.5,223.9z"/>
		<path fill="#FFFFFF" d="M531.5,223.9c0,0,121,138.2-181.4,167.3C350.1,391.2,400.6,129.3,531.5,223.9z"/>
	</g>
</g>
<g id="Layer_1_copy" display="none">
	<g display="inline">
		<path fill="#BCBEC0" d="M587,300c0,158.5-128.5,287-287,287C141.5,587,13,458.5,13,300C13,141.5,141.5,13,300,13
			C458.5,13,587,141.5,587,300z"/>
		<path fill="#FFFFFF" d="M68.5,223.9c0,0-121,138.2,181.4,167.3C249.9,391.2,199.4,129.3,68.5,223.9z"/>
		<path fill="#FFFFFF" d="M531.5,223.9c0,0,121,138.2-181.4,167.3C350.1,391.2,400.6,129.3,531.5,223.9z"/>
	</g>
</g>
</svg>
